<?xml version="1.0" standalone="no"?>
<!DOCTYPE svg PUBLIC "-//W3C//DTD SVG 20010904//EN"
 "http://www.w3.org/TR/2001/REC-SVG-20010904/DTD/svg10.dtd">
<svg version="1.0" xmlns="http://www.w3.org/2000/svg"
 width="350.000000pt" height="350.000000pt" viewBox="0 0 350.000000 350.000000"
 preserveAspectRatio="xMidYMid meet">
<metadata>
Created by potrace 1.14, written by Peter Selinger 2001-2017
</metadata>
<g transform="translate(0.000000,350.000000) scale(0.100000,-0.100000)"
fill="#000000" stroke="none">
<path d="M727 2025 c-319 -638 -497 -1006 -497 -1025 0 -26 6 -32 67 -60 38
-17 88 -42 113 -56 25 -14 70 -36 100 -49 30 -14 75 -36 100 -50 25 -15 70
-37 100 -50 30 -14 75 -36 100 -50 25 -15 70 -37 100 -50 30 -14 75 -36 100
-50 25 -15 70 -37 100 -50 30 -14 72 -34 92 -45 44 -24 66 -25 87 -6 9 8 41
24 71 36 30 12 77 35 104 51 26 17 71 39 100 50 28 11 73 34 100 50 26 17 71
39 100 50 28 11 72 34 99 50 38 23 160 79 174 79 1 0 46 -85 98 -190 82 -164
98 -190 118 -189 19 1 86 129 525 1011 277 555 502 1017 500 1025 -3 16 -41
39 -128 78 -30 13 -75 35 -100 50 -25 14 -70 36 -100 50 -30 13 -75 35 -100
50 -25 14 -70 36 -100 50 -30 13 -75 35 -100 50 -25 14 -70 36 -100 50 -30 13
-75 35 -100 49 -76 43 -177 86 -200 86 -23 0 -124 -43 -200 -86 -25 -14 -70
-36 -100 -49 -30 -14 -75 -36 -100 -50 -25 -15 -70 -37 -100 -50 -30 -14 -75
-36 -100 -50 -52 -30 -135 -69 -167 -79 -21 -7 -30 7 -115 178 -83 167 -95
186 -118 186 -23 0 -60 -71 -523 -995z m1555 676 c13 -11 36 -23 51 -26 14 -4
31 -13 37 -20 7 -8 33 -21 60 -30 27 -9 54 -22 60 -30 6 -8 24 -17 40 -20 16
-3 34 -12 40 -20 6 -8 33 -21 60 -30 70 -23 75 -33 50 -96 -12 -30 -35 -76
-51 -103 -17 -26 -39 -71 -50 -100 -11 -28 -34 -73 -50 -100 -17 -26 -39 -71
-50 -100 -11 -28 -34 -73 -50 -100 -17 -26 -39 -71 -50 -100 -12 -28 -35 -76
-53 -106 -19 -30 -41 -76 -51 -102 -10 -27 -21 -48 -24 -48 -4 0 -13 17 -20
38 -7 20 -30 66 -50 102 -21 36 -46 85 -55 110 -10 25 -31 67 -47 94 -17 26
-39 71 -50 100 -11 28 -34 73 -50 100 -17 26 -39 71 -50 100 -11 28 -34 72
-50 99 -16 26 -40 75 -54 109 -29 72 -26 80 45 103 27 9 54 22 60 30 6 8 24
17 40 20 16 3 34 12 40 20 6 8 33 21 60 30 27 9 53 22 60 30 6 7 23 16 37 20
15 3 38 15 51 26 14 10 28 19 32 19 4 0 18 -9 32 -19z m-457 -921 l385 -771
-52 -23 c-29 -13 -63 -26 -75 -30 -21 -7 -46 40 -408 764 l-385 771 47 19 c27
11 57 24 68 29 11 6 23 10 27 10 5 1 181 -346 393 -769z m-550 103 c10 -27 32
-73 51 -103 18 -30 41 -78 53 -106 11 -29 33 -74 50 -100 16 -27 39 -72 50
-100 11 -29 33 -74 50 -100 16 -27 39 -72 50 -100 11 -29 33 -74 50 -100 16
-27 39 -73 51 -103 25 -63 20 -73 -50 -96 -27 -9 -54 -22 -60 -30 -6 -8 -24
-17 -40 -20 -16 -3 -34 -12 -40 -20 -6 -8 -33 -21 -60 -30 -27 -9 -53 -22 -60
-30 -6 -7 -22 -16 -36 -19 -14 -4 -39 -17 -55 -28 l-29 -22 -29 22 c-16 11
-41 24 -55 28 -14 3 -30 12 -36 19 -7 8 -33 21 -60 30 -27 9 -54 22 -60 30 -6
8 -24 17 -40 20 -16 3 -34 12 -40 20 -6 8 -33 21 -60 30 -71 23 -74 31 -45
103 14 34 38 83 54 109 16 27 39 71 50 99 11 29 33 74 50 100 16 27 39 72 50
100 11 29 33 74 50 100 16 27 37 69 47 94 9 25 34 74 55 110 20 36 43 82 50
103 7 20 16 37 20 37 3 0 14 -21 24 -47z"/>
</g>
</svg>
